<svg xmlns="http://www.w3.org/2000/svg" version="1.1" xmlns:xlink="http://www.w3.org/1999/xlink"
  xmlns:svgjs="http://svgjs.dev/svgjs" viewBox="0 0 700 250" width="700" height="250">
  <svg viewBox="0 0 700 250" width="700" height="250" font-family="system-ui">
  <defs>
    <linearGradient gradientTransform="rotate(-37, 0.5, 0.5)" x1="50%" y1="0%" x2="50%" y2="100%"
      id="gggrain-gradient2">
      <stop stop-color="hsla(194, 100%, 20%, 1.00)" stop-opacity="1" offset="-0%"></stop>
      <stop stop-color="rgba(255,255,255,0)" stop-opacity="0" offset="100%"></stop>
    </linearGradient>
    <linearGradient gradientTransform="rotate(37, 0.5, 0.5)" x1="50%" y1="0%" x2="50%" y2="100%" id="gggrain-gradient3">
      <stop stop-color="hsl(227, 100%, 21%)" stop-opacity="1"></stop>
      <stop stop-color="rgba(255,255,255,0)" stop-opacity="0" offset="100%"></stop>
    </linearGradient>
    <filter id="gggrain-filter" x="-20%" y="-20%" width="140%" height="140%" filterUnits="objectBoundingBox"
      primitiveUnits="userSpaceOnUse" color-interpolation-filters="sRGB">
      <feTurbulence type="fractalNoise" baseFrequency="0.83" numOctaves="2" seed="2" stitchTiles="stitch" x="0%" y="0%"
        width="100%" height="100%" result="turbulence"></feTurbulence>
      <feColorMatrix type="saturate" values="0" x="0%" y="0%" width="100%" height="100%" in="turbulence"
        result="colormatrix"></feColorMatrix>
      <feComponentTransfer x="0%" y="0%" width="100%" height="100%" in="colormatrix" result="componentTransfer">
        <feFuncR type="linear" slope="3"></feFuncR>
        <feFuncG type="linear" slope="3"></feFuncG>
        <feFuncB type="linear" slope="3"></feFuncB>
      </feComponentTransfer>
      <feColorMatrix x="0%" y="0%" width="100%" height="100%" in="componentTransfer" result="colormatrix2" type="matrix"
        values="1 0 0 0 0
          0 1 0 0 0
          0 0 1 0 0
          0 0 0 15 -7"></feColorMatrix>
    </filter>
  </defs>
  <g>
    <rect width="100%" height="100%" fill="hsl(0, 100%, 23%)"></rect>
    <rect width="100%" height="100%" fill="url(#gggrain-gradient3)"></rect>
    <rect width="100%" height="100%" fill="url(#gggrain-gradient2)"></rect>
    <rect width="100%" height="100%" fill="transparent" filter="url(#gggrain-filter)" opacity="0.57"
      style="mix-blend-mode: soft-light"></rect>
  </g>
</svg>
  <svg viewBox="0 0 700 350" width="700" height="350" y="-70">
    <svg xmlns="http://www.w3.org/2000/svg" version="1.1" xmlns:xlink="http://www.w3.org/1999/xlink" viewBox="0 0 700 350" width="700" height="350" font-family="system-ui">
  <g fill="white" font-size="1em">
    <text x="350" y="150" font-size="2em" text-anchor="middle">Joel &#x2022; 奕諴</text>
    <text x="350" y="270" font-size="0.8em" text-anchor="middle" style="white-space: pre;">
      Student            Developer
    </text>
    <line x1="350" y1="253" x2="350" y2="277" stroke="white" stroke-width="1" />
  </g>
</svg>
    <svg xmlns="http://www.w3.org/2000/svg" version="1.1" xmlns:xlink="http://www.w3.org/1999/xlink" viewBox="0 0 700 350"
  width="700" height="350" font-family="system-ui" y="7">
  <rect x="280" y="175" width="140" height="40" fill="#00000010" rx="20" stroke="white" />
  <svg xmlns="http://www.w3.org/2000/svg" height="18" viewBox="0 -960 960 960" width="24" x="285" y="185">
    <path
      d="M480-480q33 0 56.5-23.5T560-560q0-33-23.5-56.5T480-640q-33 0-56.5 23.5T400-560q0 33 23.5 56.5T480-480Zm0 294q122-112 181-203.5T720-552q0-109-69.5-178.5T480-800q-101 0-170.5 69.5T240-552q0 71 59 162.5T480-186Zm0 106Q319-217 239.5-334.5T160-552q0-150 96.5-239T480-880q127 0 223.5 89T800-552q0 100-79.5 217.5T480-80Zm0-480Z"
      fill="white" />
  </svg>
  <text x="357" y="200" width="150" height="50" text-anchor="middle" fill="white" style="border: white 1px solid"
    font-size="0.8em">Melbourne, AU</text>
</svg>
  </svg>
</svg>